<svg width="778" height="338" viewBox="0 0 778 338" fill="none" xmlns="http://www.w3.org/2000/svg">
<g clip-path="url(#clip0_1877_70)">
<path d="M154.165 300.135C156.447 300.135 158.285 299.818 159.681 299.183C161.891 298.188 163.268 296.394 163.811 293.803C164.373 291.195 163.694 289.437 161.774 288.531C160.669 288.024 158.938 287.771 156.583 287.771H146.936L144.328 300.135H154.165ZM152.072 318.558C155.387 318.558 157.95 317.599 159.763 315.679C160.904 314.464 161.664 312.998 162.045 311.276C162.661 308.378 161.782 306.403 159.409 305.352C158.159 304.791 156.402 304.51 154.138 304.51H143.403L140.414 318.558H152.072ZM142.616 283.26H159.763C164.436 283.26 167.461 284.655 168.838 287.445C169.654 289.093 169.826 290.995 169.355 293.151C168.829 295.669 167.679 297.734 165.904 299.347C164.979 300.199 163.747 300.977 162.207 301.684C164.074 302.463 165.414 303.341 166.23 304.32C167.661 306.058 168.051 308.459 167.399 311.52C166.855 314.093 165.55 316.421 163.486 318.505C160.423 321.62 156.266 323.178 151.013 323.178H134.137L142.616 283.26ZM179.246 283.124H184.137L180.958 298.015C182.443 296.548 183.711 295.515 184.763 294.917C186.556 293.885 188.63 293.369 190.985 293.369C195.206 293.369 197.751 294.845 198.621 297.798C199.092 299.41 199.028 301.648 198.43 304.51L194.463 323.178H189.436L193.322 304.836C193.776 302.698 193.839 301.131 193.513 300.135C192.951 298.54 191.447 297.743 189.001 297.743C186.973 297.743 184.99 298.441 183.051 299.836C181.112 301.23 179.726 303.867 178.892 307.744L175.632 323.178H170.74L179.246 283.124ZM211.339 319.998C213.06 319.998 214.817 319.601 216.61 318.804C219.599 317.481 221.421 315.316 222.072 312.309L222.887 308.368C222.218 308.749 221.383 309.066 220.388 309.32C219.391 309.573 218.432 309.755 217.507 309.863L214.464 310.243C212.635 310.479 211.221 310.85 210.225 311.358C208.54 312.209 207.498 313.567 207.099 315.433C206.791 316.846 207.063 317.961 207.915 318.776C208.785 319.591 209.926 319.998 211.339 319.998ZM221.041 305.542C222.199 305.398 223.06 304.927 223.621 304.129C223.93 303.695 224.165 303.069 224.327 302.254C224.69 300.587 224.355 299.383 223.322 298.64C222.29 297.879 220.668 297.499 218.458 297.499C215.904 297.499 213.948 298.188 212.589 299.563C211.827 300.325 211.203 301.457 210.714 302.961H206.149C207 299.374 208.694 296.882 211.229 295.488C213.766 294.075 216.511 293.369 219.463 293.369C222.887 293.369 225.523 294.02 227.371 295.325C229.22 296.629 229.853 298.659 229.274 301.412L225.714 318.178C225.606 318.685 225.614 319.094 225.741 319.4C225.886 319.709 226.293 319.864 226.964 319.864C227.182 319.864 227.426 319.854 227.697 319.835C227.988 319.799 228.295 319.754 228.622 319.699L227.833 323.314C227.036 323.532 226.429 323.667 226.013 323.721C225.614 323.776 225.071 323.803 224.382 323.803C222.698 323.803 221.601 323.205 221.094 322.009C220.823 321.375 220.732 320.479 220.823 319.319C219.537 320.624 217.86 321.756 215.795 322.717C213.73 323.676 211.574 324.157 209.328 324.157C206.628 324.157 204.59 323.341 203.213 321.71C201.855 320.062 201.438 318.006 201.964 315.542C202.543 312.843 203.83 310.75 205.822 309.265C207.833 307.78 210.243 306.864 213.051 306.52L221.041 305.542ZM239.003 294.075H243.649L242.588 299.102C243.169 298.124 244.346 296.937 246.122 295.543C247.916 294.129 249.781 293.422 251.719 293.422C251.81 293.422 251.964 293.432 252.182 293.45C252.399 293.468 252.761 293.504 253.268 293.558L252.182 298.721C251.891 298.667 251.629 298.631 251.393 298.613C251.158 298.595 250.895 298.585 250.606 298.585C248.141 298.585 246.077 299.383 244.41 300.977C242.76 302.553 241.71 304.374 241.258 306.439L237.724 323.178H232.833L239.003 294.075ZM260.849 319.998C262.571 319.998 264.328 319.601 266.122 318.804C269.111 317.481 270.931 315.316 271.584 312.309L272.399 308.368C271.728 308.749 270.895 309.066 269.898 309.32C268.903 309.573 267.942 309.755 267.019 309.863L263.975 310.243C262.145 310.479 260.732 310.85 259.736 311.358C258.051 312.209 257.009 313.567 256.611 315.433C256.303 316.846 256.575 317.961 257.426 318.776C258.295 319.591 259.437 319.998 260.849 319.998ZM270.551 305.542C271.711 305.398 272.571 304.927 273.133 304.129C273.44 303.695 273.676 303.069 273.839 302.254C274.202 300.587 273.866 299.383 272.834 298.64C271.801 297.879 270.18 297.499 267.97 297.499C265.415 297.499 263.458 298.188 262.1 299.563C261.339 300.325 260.715 301.457 260.225 302.961H255.66C256.511 299.374 258.204 296.882 260.741 295.488C263.278 294.075 266.022 293.369 268.975 293.369C272.399 293.369 275.035 294.02 276.883 295.325C278.73 296.629 279.364 298.659 278.785 301.412L275.226 318.178C275.116 318.685 275.126 319.094 275.252 319.4C275.396 319.709 275.805 319.864 276.475 319.864C276.692 319.864 276.936 319.854 277.209 319.835C277.498 319.799 277.806 319.754 278.132 319.699L277.345 323.314C276.548 323.532 275.941 323.667 275.525 323.721C275.126 323.776 274.582 323.803 273.894 323.803C272.208 323.803 271.113 323.205 270.606 322.009C270.333 321.375 270.243 320.479 270.333 319.319C269.047 320.624 267.372 321.756 265.306 322.717C263.241 323.676 261.085 324.157 258.84 324.157C256.14 324.157 254.102 323.341 252.725 321.71C251.366 320.062 250.949 318.006 251.475 315.542C252.055 312.843 253.34 310.75 255.334 309.265C257.345 307.78 259.754 306.864 262.561 306.52L270.551 305.542ZM291.095 285.95H296.041L294.301 294.075H298.947L298.105 298.069H293.459L289.41 317.064C289.192 318.078 289.391 318.759 290.008 319.103C290.352 319.302 290.968 319.4 291.856 319.4C292.091 319.4 292.344 319.4 292.617 319.4C292.889 319.383 293.214 319.356 293.595 319.319L292.779 323.178C292.181 323.341 291.566 323.459 290.931 323.532C290.316 323.604 289.654 323.64 288.948 323.64C286.665 323.64 285.234 323.061 284.655 321.901C284.093 320.723 284.012 319.202 284.409 317.336L288.513 298.069H284.572L285.416 294.075H289.355L291.095 285.95ZM321.557 283.26H326.257L321.312 306.439L336.502 294.075H342.753L329.301 304.972L337.209 323.178H330.959L324.98 308.504L320.089 312.254L317.779 323.178H313.078L321.557 283.26ZM350.633 319.998C352.354 319.998 354.112 319.601 355.905 318.804C358.893 317.481 360.715 315.316 361.366 312.309L362.181 308.368C361.512 308.749 360.679 309.066 359.682 309.32C358.685 309.573 357.726 309.755 356.801 309.863L353.758 310.243C351.929 310.479 350.515 310.85 349.519 311.358C347.834 312.209 346.792 313.567 346.393 315.433C346.086 316.846 346.357 317.961 347.209 318.776C348.079 319.591 349.22 319.998 350.633 319.998ZM360.335 305.542C361.494 305.398 362.354 304.927 362.915 304.129C363.224 303.695 363.459 303.069 363.623 302.254C363.984 300.587 363.649 299.383 362.617 298.64C361.584 297.879 359.962 297.499 357.752 297.499C355.198 297.499 353.242 298.188 351.883 299.563C351.123 300.325 350.497 301.457 350.008 302.961H345.443C346.294 299.374 347.988 296.882 350.525 295.488C353.06 294.075 355.805 293.369 358.759 293.369C362.181 293.369 364.818 294.02 366.665 295.325C368.514 296.629 369.147 298.659 368.568 301.412L365.008 318.178C364.9 318.685 364.908 319.094 365.036 319.4C365.18 319.709 365.588 319.864 366.258 319.864C366.476 319.864 366.72 319.854 366.992 319.835C367.282 319.799 367.59 319.754 367.916 319.699L367.127 323.314C366.33 323.532 365.723 323.667 365.307 323.721C364.908 323.776 364.365 323.803 363.676 323.803C361.992 323.803 360.896 323.205 360.388 322.009C360.117 321.375 360.026 320.479 360.117 319.319C358.831 320.624 357.154 321.756 355.09 322.717C353.024 323.676 350.869 324.157 348.622 324.157C345.922 324.157 343.884 323.341 342.509 321.71C341.149 320.062 340.732 318.006 341.258 315.542C341.837 312.843 343.124 310.75 345.116 309.265C347.127 307.78 349.537 306.864 352.345 306.52L360.335 305.542ZM424.682 283.26L423.677 288.015H410.225L402.752 323.178H397.263L404.737 288.015H391.285L392.291 283.26H424.682ZM424.764 294.075H429.411L428.35 299.102C428.931 298.124 430.108 296.937 431.884 295.543C433.677 294.129 435.543 293.422 437.481 293.422C437.571 293.422 437.726 293.432 437.944 293.45C438.161 293.468 438.523 293.504 439.03 293.558L437.944 298.721C437.653 298.667 437.391 298.631 437.155 298.613C436.92 298.595 436.657 298.585 436.368 298.585C433.903 298.585 431.838 299.383 430.172 300.977C428.522 302.553 427.472 304.374 427.02 306.439L423.486 323.178H418.595L424.764 294.075ZM446.611 319.998C448.333 319.998 450.09 319.601 451.884 318.804C454.873 317.481 456.693 315.316 457.346 312.309L458.161 308.368C457.491 308.749 456.657 309.066 455.66 309.32C454.665 309.573 453.704 309.755 452.78 309.863L449.736 310.243C447.907 310.479 446.494 310.85 445.498 311.358C443.813 312.209 442.772 313.567 442.373 315.433C442.065 316.846 442.337 317.961 443.188 318.776C444.057 319.591 445.199 319.998 446.611 319.998ZM456.313 305.542C457.472 305.398 458.333 304.927 458.895 304.129C459.202 303.695 459.438 303.069 459.601 302.254C459.964 300.587 459.628 299.383 458.596 298.64C457.563 297.879 455.942 297.499 453.732 297.499C451.176 297.499 449.22 298.188 447.862 299.563C447.101 300.325 446.476 301.457 445.987 302.961H441.421C442.273 299.374 443.966 296.882 446.503 295.488C449.04 294.075 451.784 293.369 454.737 293.369C458.161 293.369 460.797 294.02 462.645 295.325C464.492 296.629 465.127 298.659 464.546 301.412L460.987 318.178C460.878 318.685 460.887 319.094 461.014 319.4C461.16 319.709 461.567 319.864 462.237 319.864C462.454 319.864 462.698 319.854 462.97 319.835C463.26 319.799 463.568 319.754 463.894 319.699L463.107 323.314C462.31 323.532 461.703 323.667 461.286 323.721C460.887 323.776 460.344 323.803 459.656 323.803C457.97 323.803 456.875 323.205 456.367 322.009C456.095 321.375 456.005 320.479 456.095 319.319C454.809 320.624 453.134 321.756 451.068 322.717C449.003 323.676 446.847 324.157 444.601 324.157C441.902 324.157 439.864 323.341 438.487 321.71C437.128 320.062 436.712 318.006 437.236 315.542C437.817 312.843 439.102 310.75 441.096 309.265C443.107 307.78 445.516 306.864 448.323 306.52L456.313 305.542ZM476.53 294.075L479.275 317.771L492.428 294.075H497.78L480.634 323.178H475.416L470.851 294.075H476.53ZM523.541 298.64C524.212 300.108 524.502 301.82 524.411 303.776C524.43 305.116 524.122 307.254 523.488 310.189H502.156C501.612 313.142 501.802 315.516 502.726 317.309C503.668 319.084 505.507 319.972 508.243 319.972C510.797 319.972 513.007 319.13 514.874 317.444C515.96 316.466 516.821 315.334 517.454 314.048H522.264C521.902 315.117 521.223 316.312 520.226 317.635C519.248 318.939 518.224 320.008 517.156 320.842C515.362 322.291 513.315 323.269 511.014 323.776C509.764 324.066 508.396 324.211 506.911 324.211C503.288 324.211 500.497 322.898 498.541 320.271C496.585 317.626 496.114 313.93 497.128 309.184C498.125 304.51 500.198 300.714 503.352 297.798C506.504 294.881 510.127 293.422 514.221 293.422C516.285 293.422 518.188 293.912 519.927 294.89C521.666 295.85 522.871 297.1 523.541 298.64ZM519.275 306.303C519.528 304.183 519.43 302.49 518.976 301.222C518.143 298.867 516.159 297.689 513.025 297.689C510.779 297.689 508.723 298.504 506.856 300.135C504.99 301.747 503.74 303.803 503.106 306.303H519.275ZM535.39 283.26H540.281L531.803 323.178H526.911L535.39 283.26ZM576.205 306.819L573.895 289.184L563.705 306.819H576.205ZM572.346 283.26H578.46L584.465 323.178H578.542L577.02 311.221H561.232L554.383 323.178H548.84L572.346 283.26ZM612.102 308.45C612.591 306.132 612.672 304.138 612.346 302.471C611.767 299.265 609.792 297.662 606.423 297.662C603.034 297.662 600.353 299.355 598.378 302.744C597.328 304.554 596.504 306.856 595.906 309.645C595.435 311.891 595.372 313.804 595.716 315.38C596.331 318.386 598.325 319.89 601.695 319.89C603.977 319.89 606.078 318.939 607.999 317.037C609.919 315.117 611.287 312.254 612.102 308.45ZM594.492 294.211H599.249L598.433 298.069C599.684 296.746 600.97 295.723 602.293 294.998C604.175 293.912 606.232 293.369 608.46 293.369C611.758 293.369 614.284 294.637 616.042 297.172C617.799 299.69 618.179 303.296 617.184 307.988C615.843 314.328 613.225 318.857 609.331 321.576C606.866 323.296 604.24 324.157 601.449 324.157C599.258 324.157 597.518 323.676 596.233 322.717C595.471 322.173 594.702 321.239 593.923 319.917L590.771 334.782H585.878L594.492 294.211ZM643.081 308.45C643.569 306.132 643.651 304.138 643.325 302.471C642.744 299.265 640.771 297.662 637.401 297.662C634.013 297.662 631.332 299.355 629.357 302.744C628.307 304.554 627.482 306.856 626.884 309.645C626.413 311.891 626.35 313.804 626.695 315.38C627.31 318.386 629.302 319.89 632.672 319.89C634.955 319.89 637.057 318.939 638.977 317.037C640.898 315.117 642.265 312.254 643.081 308.45ZM625.471 294.211H630.227L629.412 298.069C630.662 296.746 631.947 295.723 633.27 294.998C635.154 293.912 637.21 293.369 639.439 293.369C642.737 293.369 645.263 294.637 647.02 297.172C648.778 299.69 649.158 303.296 648.161 307.988C646.821 314.328 644.203 318.857 640.309 321.576C637.844 323.296 635.218 324.157 632.428 324.157C630.236 324.157 628.496 323.676 627.211 322.717C626.449 322.173 625.679 321.239 624.901 319.917L621.749 334.782H616.857L625.471 294.211Z" fill="white"/>
<path d="M18.755 202.979V175.931H50.6514V160.62H18.755V137.017H52.5652V121.324H0V218.799H54.6066V203.106L18.755 202.979ZM71.9582 164.83C76.5514 162.024 82.9306 159.982 89.3099 159.982C99.6444 159.982 102.068 165.213 102.068 172.358C79.4858 172.358 63.41 180.779 63.41 198.896C63.41 210.379 71.5755 220.075 84.5892 220.075C92.4996 220.075 99.3891 216.886 103.344 211.4H103.727L104.875 218.671H121.717C120.951 214.334 120.696 208.082 120.696 201.958V176.185C120.696 160.748 114.827 146.713 92.7547 146.713C81.6547 146.713 72.979 149.903 68.1307 152.583L71.9582 164.83ZM102.579 194.558C102.579 203.489 95.3064 206.806 90.7134 206.806C85.9927 206.806 81.7824 203.872 81.7824 197.11C81.7824 186.774 92.3719 184.351 102.451 184.351V194.558H102.579ZM133.327 215.354C138.048 218.161 145.575 220.075 153.23 220.075C170.837 220.075 181.043 211.271 181.043 197.748C181.043 187.923 175.557 181.162 163.564 176.185C155.399 172.741 152.72 170.827 152.72 166.744C152.72 162.917 155.782 160.11 161.524 160.11C166.754 160.11 171.858 162.151 174.919 163.809L178.492 150.541C174.41 148.372 168.158 146.585 161.013 146.585C145.319 146.585 135.113 156.282 135.113 168.912C135.113 176.568 139.961 184.096 153.103 189.454C160.886 192.772 163.309 194.94 163.309 199.278C163.309 203.617 160.12 206.295 153.485 206.295C147.744 206.295 140.599 203.744 137.027 201.575L133.327 215.354ZM250.323 188.944C250.706 186.903 250.834 184.223 250.834 181.545C250.834 158.706 239.605 146.585 222.509 146.585C201.84 146.585 190.103 164.064 190.103 184.351C190.103 206.295 202.606 220.075 224.423 220.075C233.227 220.075 241.392 218.544 247.388 215.993L244.708 202.979C239.86 204.636 234.374 205.914 227.484 205.914C217.278 205.914 208.73 201.064 208.22 189.071H250.451V188.944H250.323ZM208.092 176.057C208.603 169.169 212.43 159.727 221.489 159.727C230.802 159.727 233.736 168.658 233.61 176.057H208.092ZM330.702 121.196L319.602 157.814C316.285 169.552 313.478 181.288 311.053 192.262H310.67C308.502 181.034 305.695 169.678 302.505 157.814L291.916 121.196H268.568L262.061 218.671H279.413L281.327 181.162C281.964 169.041 282.602 154.751 282.857 142.375H283.24C285.537 154.368 288.598 167.51 291.788 178.482L302.633 217.269H316.922L328.915 177.844C332.233 166.872 335.677 153.985 338.612 142.375H338.995C338.867 152.2 339.506 167.893 340.016 180.779L341.801 218.671H359.663L354.177 121.196H330.702ZM405.085 184.989C404.064 189.327 402.915 194.43 402.15 198.258H401.767C400.874 194.302 399.597 189.454 398.45 184.989L387.987 148.117H367.446L391.305 212.93C391.815 214.334 392.071 215.354 392.071 216.12C392.071 217.523 388.88 224.668 382.629 229.262C379.312 231.558 375.868 233.599 372.677 234.365L377.398 250.185C381.609 249.42 388.88 246.867 395.643 240.36C403.553 232.451 409.677 219.947 417.459 197.11L433.408 147.989H413.887L405.085 184.989ZM435.704 121.196V137.4H459.818V218.671H478.573V137.4H502.815V121.196H435.704ZM528.97 160.365L528.204 147.989H512.128C512.383 154.241 512.638 161.386 512.638 170.061V218.671H531.394V182.183C531.394 170.061 537.773 164.447 546.322 164.447C548.235 164.447 549.766 164.575 551.17 164.83V146.968C549.894 146.714 548.745 146.585 546.96 146.585C540.453 146.585 532.67 151.307 529.479 160.492H528.97V160.365ZM581.025 128.724C581.025 122.982 576.941 118.645 570.817 118.645C565.077 118.645 560.738 122.855 560.738 128.724C560.738 134.338 564.822 138.803 570.817 138.803C576.815 138.931 581.025 134.847 581.025 128.724ZM561.632 218.671H580.387V147.989H561.632V218.671ZM613.176 148.117H596.845C597.1 154.496 597.355 162.151 597.355 171.209V246.995H616.238V211.781H616.494C619.555 216.503 625.552 219.947 633.207 219.947C647.625 219.947 662.296 208.465 662.296 182.564C662.296 160.875 650.814 146.459 635.375 146.459C626.19 146.459 619.045 150.413 614.452 157.686H614.197L613.176 148.117ZM616.238 177.078C616.238 168.658 621.852 161.768 629.252 161.768C638.566 161.768 643.414 170.827 643.414 183.458C643.414 196.216 638.438 205.531 628.869 205.531C622.618 205.531 616.238 200.554 616.238 190.347V177.078Z" fill="white"/>
<path fill-rule="evenodd" clip-rule="evenodd" d="M121.457 157.303C173.129 52.9372 314.494 132.806 392.831 63.144C314.749 144.544 160.243 75.775 121.457 157.303Z" fill="white"/>
<path fill-rule="evenodd" clip-rule="evenodd" d="M356.484 64.9335L365.797 74.8853C370.39 79.861 369.114 79.9886 363.883 83.0506L334.155 96.9575C330.583 99.1264 328.286 97.3402 330.839 93.2575L349.72 63.1473C351.507 59.4474 353.549 61.4887 356.484 64.9335Z" fill="white"/>
<path d="M650.096 248.082C651.298 248.082 652.02 247.601 652.261 246.879C652.741 246.159 652.741 245.196 652.741 244.236C652.741 243.273 652.261 242.793 651.779 242.311C651.058 241.831 650.336 241.35 649.616 241.35C648.653 241.35 647.933 241.831 647.693 242.553C647.211 243.514 647.211 244.236 647.211 244.956C647.211 245.918 647.452 246.399 648.173 247.121C648.413 247.841 649.135 248.082 650.096 248.082ZM675.574 248.322C677.738 248.322 679.661 247.841 681.584 247.121C683.507 246.399 685.432 245.437 687.114 244.236C688.797 243.033 690.24 241.591 691.682 240.148C693.125 238.465 694.326 237.023 695.048 235.1C695.288 234.86 695.288 234.618 695.528 234.138C695.769 233.657 695.768 233.417 695.768 233.175C695.768 232.455 695.288 231.974 694.566 231.974C694.086 231.974 693.605 232.215 693.365 232.695C692.883 233.175 692.643 233.657 692.403 233.897C691.682 235.1 690.72 236.302 689.758 237.503C688.797 238.705 687.595 239.668 686.392 240.628C685.19 241.591 683.748 242.311 682.547 243.033C681.104 243.754 679.661 243.995 677.979 243.995C676.536 243.995 675.334 243.514 674.372 242.553C673.651 241.831 673.17 240.869 672.929 239.908C672.449 238.946 672.449 237.743 672.449 236.542C672.449 235.34 672.689 233.897 672.929 232.695C673.17 231.252 673.651 230.05 674.131 228.849C674.613 227.647 675.093 226.444 675.814 225.484C676.536 224.521 677.016 223.559 677.497 223.079C677.979 222.598 678.699 222.117 679.18 221.876C679.902 221.396 680.382 221.396 681.104 221.396C682.065 221.396 682.547 221.636 682.547 222.357C682.787 223.079 682.787 223.559 682.787 224.281C682.787 225.484 682.547 226.444 682.065 227.166C681.584 227.887 681.344 228.609 681.344 229.089C681.344 229.57 681.584 229.81 682.065 229.81C682.787 229.81 683.267 229.57 683.989 229.089C684.71 228.367 685.19 227.647 685.432 226.444C685.672 225.242 685.912 224.521 685.912 223.559C685.912 221.636 685.432 220.194 684.229 219.473C683.267 218.511 681.825 218.271 680.142 218.271C678.699 218.271 677.257 218.751 675.814 219.231C674.612 219.953 673.411 220.674 672.449 221.636C671.486 222.598 670.766 223.319 670.285 224.521C669.563 225.724 669.083 226.925 668.603 228.127C668.121 229.329 667.64 230.772 667.4 231.974C667.16 233.417 666.92 234.618 666.92 236.061C666.92 237.985 667.16 239.668 667.881 241.591C668.361 243.273 669.323 244.716 670.526 246.159C671.246 246.879 671.968 247.361 672.929 247.841C673.411 248.082 674.372 248.322 675.574 248.322ZM693.125 238.705C693.125 241.831 693.846 244.476 695.048 245.918C696.49 247.361 697.933 248.322 699.856 248.322C701.299 248.322 702.741 247.841 704.424 247.121C706.107 246.159 707.309 244.956 708.752 243.514C709.953 241.831 711.155 239.908 711.877 237.503C712.838 235.1 713.078 232.455 713.078 229.329C713.078 228.127 712.838 226.925 712.598 225.724C712.357 224.521 711.877 223.559 711.395 222.839C710.915 221.876 710.194 221.396 709.232 220.916C708.27 220.434 707.309 220.194 706.347 220.194C704.424 220.194 702.741 220.916 700.818 221.876C699.134 223.079 697.693 224.521 696.731 226.444C695.528 228.367 694.566 230.292 694.086 232.455C693.605 234.378 693.125 236.542 693.125 238.705ZM706.587 224.281C707.789 224.281 708.752 225.002 709.232 225.964C709.953 227.166 710.194 228.609 710.194 230.292C710.194 232.455 709.953 234.378 709.472 236.302C708.992 237.985 708.27 239.427 707.549 240.869C706.587 242.071 705.866 243.033 704.904 243.754C703.944 244.476 702.981 244.716 702.019 244.716C701.058 244.716 700.096 244.236 699.376 243.273C698.654 242.311 698.413 240.869 698.413 238.705C698.413 237.263 698.654 235.58 699.134 233.897C699.616 232.215 700.336 230.772 700.818 229.329C701.539 227.887 702.501 226.685 703.462 225.964C704.424 225.002 705.386 224.281 706.587 224.281ZM739.525 246.399C740.005 246.399 740.245 246.159 740.727 245.918C741.207 245.678 741.448 245.437 741.688 244.956C742.168 244.236 742.65 243.514 743.13 242.071C743.852 240.869 744.573 239.427 745.535 237.743C746.496 236.061 747.458 234.618 748.419 232.935C749.381 231.252 750.583 229.81 751.546 228.367C752.506 226.925 753.469 225.964 754.189 225.002C755.151 224.041 755.632 223.559 756.354 223.559C756.834 223.559 757.074 223.799 757.074 224.041C757.315 224.281 757.315 224.762 757.555 225.002C757.796 225.483 757.796 225.724 757.796 226.204V227.166C757.796 229.329 757.555 231.252 757.315 233.417C757.074 235.58 756.834 237.503 756.834 239.668C756.834 240.628 756.834 241.591 757.074 242.553C757.315 243.754 757.315 244.716 757.796 245.678C758.277 246.639 758.757 247.601 759.238 248.082C759.96 248.803 760.922 249.044 761.883 249.044C763.085 249.044 764.527 248.562 765.97 247.841C767.413 247.121 768.855 245.918 770.298 244.956C771.74 243.754 772.941 242.553 774.144 241.35C775.346 240.148 776.308 238.946 777.029 237.985C777.269 237.743 777.269 237.503 777.509 237.263C777.751 237.023 777.749 236.783 777.749 236.542C777.749 236.061 777.509 235.82 777.509 235.58C777.269 235.1 777.029 235.1 776.548 235.1C776.067 235.1 775.586 235.34 775.346 235.82C774.866 236.302 774.625 236.783 774.384 237.023C773.903 237.743 773.182 238.465 772.461 239.427C771.499 240.388 770.538 241.35 769.576 242.311C768.615 243.273 767.413 243.995 766.45 244.716C765.488 245.437 764.527 245.678 763.805 245.678C763.325 245.678 762.845 245.437 762.604 245.196C762.364 244.716 762.123 244.476 761.883 243.995C761.642 243.514 761.642 243.033 761.642 242.553V241.35C761.642 238.705 761.883 235.82 762.123 233.417C762.604 230.772 762.604 228.127 762.604 225.484C762.604 224.762 762.364 224.041 762.364 223.559C762.123 222.839 761.883 222.117 761.642 221.636C761.162 220.916 760.68 220.434 760.2 220.194C759.479 219.713 758.997 219.473 758.277 219.473C757.074 219.473 756.112 219.953 755.151 220.674C753.949 221.396 753.228 222.117 752.506 222.839C751.544 223.799 750.824 224.762 750.103 225.964C749.381 227.166 748.66 228.127 747.939 229.089C746.978 230.532 746.016 231.734 745.053 233.175C744.093 234.618 743.13 235.82 742.41 237.263C742.168 237.503 742.168 237.743 741.928 237.985C741.688 238.465 741.448 238.705 741.448 238.705C741.207 238.705 741.207 238.465 740.967 237.985C740.726 237.503 740.727 237.023 740.727 236.542C740.727 236.061 740.486 235.34 740.486 234.86V233.657C740.486 232.215 740.485 231.012 740.727 229.57C740.727 228.127 740.967 226.925 740.967 225.484C740.967 225.002 740.967 224.281 740.727 223.799C740.485 223.079 740.486 222.357 740.245 221.876C740.005 221.156 739.765 220.674 739.283 220.194C738.803 219.713 738.322 219.473 737.6 219.473C736.64 219.473 735.677 219.953 734.475 220.916C733.274 221.876 732.312 223.079 731.109 224.281C729.907 225.724 728.946 226.925 728.224 228.367C727.264 229.81 726.542 230.772 726.061 231.493C726.301 230.05 726.542 228.849 727.023 227.406C727.504 225.964 727.744 224.762 728.224 223.559C728.466 223.079 728.706 222.598 728.946 221.876C729.186 221.156 729.667 220.434 729.907 219.953C730.149 219.231 730.389 218.511 730.629 218.03C730.869 217.308 730.869 216.828 730.869 216.348C730.869 215.866 730.629 215.386 730.389 215.145C730.149 214.664 729.667 214.664 729.187 214.664C728.224 214.664 727.264 214.905 726.061 215.386C724.859 215.866 724.138 216.588 723.656 217.549C723.416 218.271 722.936 219.231 722.696 220.434C722.214 221.876 721.733 223.559 721.493 225.484C721.013 227.406 720.531 229.329 720.291 231.493C719.81 233.657 719.33 235.58 719.089 237.503C718.608 239.427 718.368 241.11 718.128 242.793C717.887 244.476 717.646 245.437 717.646 246.159C717.646 246.639 717.887 246.879 718.128 247.361C718.368 247.841 718.848 247.841 719.33 247.841C720.051 247.841 720.531 247.601 721.013 247.121C721.493 246.639 721.733 246.159 721.974 245.678C722.214 244.956 722.696 244.236 723.416 243.033C724.138 241.831 724.859 240.388 725.821 238.946C726.782 237.263 727.744 235.82 728.706 234.138C729.907 232.455 730.869 231.012 731.831 229.57C732.792 228.127 733.754 227.166 734.475 226.204C735.437 225.242 735.918 224.762 736.399 224.762C736.88 224.762 737.12 225.002 737.12 225.484C737.12 225.964 737.36 226.204 737.36 226.444V228.367V231.734C737.36 232.935 737.36 234.138 737.6 235.58C737.6 237.023 737.842 238.225 737.842 239.668C738.082 241.11 738.082 242.311 738.322 243.273C738.562 244.476 738.803 245.437 739.043 246.159C738.563 245.918 739.043 246.399 739.525 246.399Z" fill="white"/>
<path fill-rule="evenodd" clip-rule="evenodd" d="M304.163 0.248194L487.505 15.4308C496.435 15.9413 495.031 17.7275 490.566 21.8102L401.129 109.334C396.153 114.82 395.004 113.289 389.008 106.782L354.05 67.2306C349.457 62.3823 348.691 61.3617 356.602 58.5547L443.615 30.6136L345.756 47.9651C338.483 49.4962 339.377 50.5169 334.146 43.2445L301.612 5.98955C297.53 1.39646 297.911 -0.772491 304.163 0.248194Z" fill="white"/>
<path d="M110.651 303.128H3.46875V309.852H110.651V303.128Z" fill="#FF630B"/>
<path d="M777.878 303.128H670.695V309.852H777.878V303.128Z" fill="#139E3A"/>
</g>
<defs>
<clipPath id="clip0_1877_70">
<rect width="778" height="337.623" fill="white"/>
</clipPath>
</defs>
</svg>
