<svg width="248" height="224" viewBox="0 0 248 224" fill="none" xmlns="http://www.w3.org/2000/svg">
<rect y="7" width="4" height="54" fill="#ADADAD"/>
<rect width="4" height="54" transform="matrix(-1 0 0 1 248 7)" fill="#ADADAD"/>
<rect x="54" y="4" width="4" height="54" transform="rotate(90 54 4)" fill="#ADADAD"/>
<rect width="4" height="54" transform="matrix(0 1 1 0 194 4)" fill="#ADADAD"/>
<rect x="54" y="57" width="4" height="54" transform="rotate(90 54 57)" fill="#ADADAD"/>
<rect width="4" height="54" transform="matrix(0 1 1 0 194 57)" fill="#ADADAD"/>
<rect x="16.5" y="53.5" width="103" height="170" fill="url(#paint0_linear_483_6117)" fill-opacity="0.93" stroke="#A7282D"/>
<rect x="128.5" y="53.5" width="103" height="170" fill="url(#paint1_linear_483_6117)" fill-opacity="0.93" stroke="#A7282D"/>
<rect x="19" width="209" height="11" rx="5.5" fill="#A7282D"/>
<defs>
<linearGradient id="paint0_linear_483_6117" x1="68" y1="53" x2="66.9748" y2="960.792" gradientUnits="userSpaceOnUse">
<stop/>
<stop offset="0.33212" stop-color="#2A2A2A"/>
</linearGradient>
<linearGradient id="paint1_linear_483_6117" x1="180" y1="53" x2="178.975" y2="960.792" gradientUnits="userSpaceOnUse">
<stop/>
<stop offset="0.33212" stop-color="#2A2A2A"/>
</linearGradient>
</defs>
</svg>
