<svg width="195" height="84" viewBox="0 0 195 84" fill="none" xmlns="http://www.w3.org/2000/svg">
<path d="M137.1 55.3239V32.1996H120.789V35.975H132.961V41.5242H121.689V45.2996H132.961V51.5485H120.789V55.3239H137.1Z" fill="white"/>
<path d="M77.37 38.8228C77.37 39.5605 77.2773 40.2657 77.0919 40.9383C76.9174 41.6001 76.6338 42.2402 76.2412 42.8586C75.8595 43.477 75.3305 44.0303 74.6543 44.5185C73.989 45.0067 73.1983 45.3864 72.2821 45.6576L79.3005 55.3239H73.9345L67.4232 46.3573H63.4805V55.3239H59.3578V32.1996H69.2555C69.7463 32.1996 70.1935 32.2159 70.597 32.2484C71.0115 32.2701 71.5077 32.3352 72.0858 32.4437C72.6748 32.5413 73.1928 32.6769 73.64 32.8505C74.0981 33.0241 74.567 33.279 75.0469 33.6154C75.5377 33.9517 75.9413 34.3477 76.2576 34.8033C76.5848 35.2481 76.852 35.8177 77.0592 36.512C77.2664 37.1955 77.37 37.9658 77.37 38.8228ZM63.4805 35.9587V42.5819H67.276C67.9304 42.5819 68.5084 42.5602 69.0101 42.5168C69.5118 42.4734 70.0299 42.3867 70.5643 42.2565C71.0987 42.1154 71.535 41.9256 71.8731 41.6869C72.2221 41.4482 72.5057 41.1173 72.7238 40.6942C72.9529 40.2711 73.0674 39.7721 73.0674 39.1971C73.0674 37.0382 71.3932 35.9587 68.0449 35.9587H63.4805Z" fill="white"/>
<path d="M80.7081 55.3239V32.1996H97.019V35.975H84.8472V41.5242H96.1192V45.2996H84.8472V51.5485H97.019V55.3239H80.7081Z" fill="white"/>
<path d="M97.0851 32.1996H101.813L108.652 50.9138L115.474 32.1996H119.956L110.958 55.3239H106.067L97.0851 32.1996Z" fill="white"/>
<path d="M138.943 38.8228C138.943 39.5605 139.036 40.2657 139.221 40.9383C139.396 41.6001 139.679 42.2402 140.072 42.8586C140.454 43.477 140.982 44.0303 141.659 44.5185C142.324 45.0067 143.115 45.3864 144.031 45.6576L137.012 55.3239H142.379L148.89 46.3573H152.833V55.3239H156.955V32.1996H147.057C146.567 32.1996 146.119 32.2159 145.716 32.2484C145.301 32.2701 144.805 32.3352 144.227 32.4437C143.638 32.5413 143.12 32.6769 142.673 32.8505C142.215 33.0241 141.746 33.279 141.266 33.6154C140.775 33.9517 140.372 34.3477 140.055 34.8033C139.728 35.2481 139.461 35.8177 139.254 36.512C139.047 37.1955 138.943 37.9658 138.943 38.8228ZM152.833 35.9587V42.5819H149.037C148.383 42.5819 147.805 42.5602 147.303 42.5168C146.801 42.4734 146.283 42.3867 145.749 42.2565C145.214 42.1154 144.778 41.9256 144.44 41.6869C144.091 41.4482 143.807 41.1173 143.589 40.6942C143.36 40.2711 143.246 39.7721 143.246 39.1971C143.246 37.0382 144.92 35.9587 148.268 35.9587H152.833Z" fill="white"/>
<path d="M168.715 31.988C170.885 31.988 173.028 32.3081 175.144 32.9482L175.815 33.1434L174.473 36.9188L173.852 36.7398C171.878 36.1974 170.078 35.9262 168.453 35.9262C166.85 35.9262 165.475 36.1865 164.33 36.7073C163.196 37.228 162.629 37.8952 162.629 38.7089C162.629 39.2405 162.88 39.707 163.381 40.1084C163.894 40.5098 164.554 40.8515 165.361 41.1336C166.168 41.4048 167.057 41.6761 168.028 41.9473C169.009 42.2185 169.991 42.5331 170.972 42.8911C171.954 43.2491 172.848 43.6614 173.655 44.1279C174.463 44.5944 175.117 45.2182 175.619 45.9993C176.131 46.7696 176.388 47.6592 176.388 48.6681C176.388 49.3191 176.273 49.9646 176.044 50.6047C175.826 51.2339 175.45 51.8577 174.915 52.4761C174.392 53.0945 173.737 53.6369 172.952 54.1034C172.178 54.5591 171.185 54.9333 169.974 55.2263C168.775 55.5083 167.428 55.6494 165.934 55.6494C164.439 55.6494 163.092 55.5138 161.893 55.2425C160.693 54.9605 159.422 54.5591 158.081 54.0383L157.475 53.8105L158.866 49.8724L159.504 50.1165C162.263 51.0929 164.538 51.581 166.326 51.581C168.006 51.581 169.364 51.3261 170.4 50.8162C171.447 50.3063 171.97 49.6337 171.97 48.7983C171.97 48.3318 171.812 47.9141 171.496 47.5453C171.18 47.1764 170.754 46.8672 170.22 46.6177C169.685 46.3573 169.069 46.1187 168.371 45.9017C167.684 45.6847 166.959 45.4731 166.195 45.267C165.432 45.0609 164.668 44.8385 163.905 44.5998C163.141 44.3611 162.411 44.0736 161.713 43.7373C161.026 43.401 160.415 43.0213 159.88 42.5982C159.346 42.1751 158.921 41.6489 158.604 41.0197C158.288 40.3796 158.13 39.669 158.13 38.8879C158.13 36.9351 159.09 35.2969 161.009 33.9734C162.94 32.6498 165.508 31.988 168.715 31.988Z" fill="white"/>
<path d="M178.4 55.3239V32.1996H194.711V35.975H182.54V41.5242H193.812V45.2996H182.54V51.5485H194.711V55.3239H178.4Z" fill="white"/>
<path d="M70.2098 84C66.2222 84 63.1784 82.945 61.0784 80.835C59.0021 78.725 57.9639 75.7284 57.9639 71.8451C57.9639 69.9147 58.2824 68.1975 58.9195 66.6936C59.5566 65.1672 60.4296 63.8877 61.5385 62.8552C62.6475 61.8002 63.9688 61.0033 65.5025 60.4646C67.0362 59.9259 68.6997 59.6565 70.4929 59.6565C71.5311 59.6565 72.4749 59.7351 73.3243 59.8922C74.1737 60.0269 74.917 60.1952 75.554 60.3972C76.1911 60.5768 76.722 60.7676 77.1467 60.9696C77.5714 61.1716 77.8782 61.3288 78.0669 61.441L76.4743 65.6834C75.7192 65.3019 74.8344 64.9764 73.8198 64.707C72.8288 64.4377 71.6962 64.303 70.4221 64.303C69.5727 64.303 68.7351 64.4377 67.9092 64.707C67.107 64.9764 66.3873 65.4141 65.7503 66.0201C65.1368 66.6038 64.6413 67.3669 64.2638 68.3097C63.8863 69.2525 63.6975 70.3973 63.6975 71.7441C63.6975 72.8215 63.8155 73.8316 64.0514 74.7744C64.311 75.6947 64.7121 76.4916 65.2548 77.165C65.8211 77.8384 66.5525 78.3771 67.4491 78.7811C68.3457 79.1627 69.4311 79.3535 70.7052 79.3535C71.5075 79.3535 72.2271 79.3086 72.8642 79.2188C73.5013 79.1291 74.0676 79.028 74.563 78.9158C75.0585 78.7811 75.4951 78.6352 75.8726 78.4781C76.2501 78.321 76.5922 78.1751 76.899 78.0404L78.4208 82.2492C77.6422 82.6981 76.545 83.1021 75.1293 83.4613C73.7136 83.8204 72.0738 84 70.2098 84Z" fill="white"/>
<path d="M85.7134 71.8451C85.7134 72.9899 85.855 74.0224 86.1381 74.9427C86.4448 75.863 86.8696 76.6599 87.4122 77.3333C87.9785 77.9843 88.6628 78.4893 89.465 78.8485C90.2672 79.2076 91.1875 79.3872 92.2256 79.3872C93.2402 79.3872 94.1486 79.2076 94.9509 78.8485C95.7767 78.4893 96.461 77.9843 97.0036 77.3333C97.5699 76.6599 97.9946 75.863 98.2778 74.9427C98.5845 74.0224 98.7379 72.9899 98.7379 71.8451C98.7379 70.7003 98.5845 69.6677 98.2778 68.7474C97.9946 67.8047 97.5699 67.0078 97.0036 66.3569C96.461 65.6835 95.7767 65.1672 94.9509 64.808C94.1486 64.4489 93.2402 64.2693 92.2256 64.2693C91.1875 64.2693 90.2672 64.4601 89.465 64.8417C88.6628 65.2008 87.9785 65.7171 87.4122 66.3905C86.8696 67.0415 86.4448 67.8383 86.1381 68.7811C85.855 69.7014 85.7134 70.7227 85.7134 71.8451ZM104.436 71.8451C104.436 73.8428 104.118 75.6049 103.481 77.1313C102.867 78.6352 102.018 79.9035 100.932 80.936C99.8469 81.9461 98.5491 82.7093 97.039 83.2256C95.5525 83.7419 93.9481 84 92.2256 84C90.5504 84 88.9695 83.7419 87.483 83.2256C85.9965 82.7093 84.6988 81.9461 83.5898 80.936C82.4809 79.9035 81.6078 78.6352 80.9708 77.1313C80.3337 75.6049 80.0152 73.8428 80.0152 71.8451C80.0152 69.8473 80.3455 68.0965 81.0062 66.5925C81.6668 65.0662 82.5516 63.7867 83.6606 62.7542C84.7932 61.7216 86.0909 60.9472 87.5538 60.4309C89.0403 59.9146 90.5976 59.6565 92.2256 59.6565C93.9009 59.6565 95.4818 59.9146 96.9683 60.4309C98.4548 60.9472 99.7525 61.7216 100.861 62.7542C101.97 63.7867 102.843 65.0662 103.481 66.5925C104.118 68.0965 104.436 69.8473 104.436 71.8451Z" fill="white"/>
<path d="M114.56 79.2525C114.819 79.2749 115.114 79.2974 115.445 79.3198C115.799 79.3198 116.211 79.3198 116.683 79.3198C119.444 79.3198 121.485 78.6577 122.806 77.3333C124.151 76.009 124.824 74.1795 124.824 71.8451C124.824 69.3984 124.187 67.5465 122.912 66.2895C121.638 65.0325 119.621 64.404 116.86 64.404C116.483 64.404 116.093 64.4152 115.692 64.4377C115.291 64.4377 114.914 64.4601 114.56 64.505V79.2525ZM130.522 71.8451C130.522 73.8653 130.192 75.6274 129.531 77.1313C128.87 78.6352 127.926 79.881 126.699 80.8687C125.496 81.8563 124.021 82.5971 122.275 83.0909C120.529 83.5847 118.571 83.8316 116.4 83.8316C115.409 83.8316 114.253 83.7868 112.932 83.697C111.61 83.6296 110.313 83.4725 109.039 83.2256V60.4983C110.313 60.2738 111.634 60.1279 113.003 60.0605C114.395 59.9708 115.586 59.9259 116.577 59.9259C118.677 59.9259 120.577 60.1503 122.275 60.5993C123.998 61.0482 125.473 61.7553 126.699 62.7205C127.926 63.6857 128.87 64.9203 129.531 66.4242C130.192 67.9281 130.522 69.7351 130.522 71.8451Z" fill="white"/>
<path d="M160.301 83.5286C158.72 80.8574 157.01 78.22 155.169 75.6161C153.329 73.0123 151.37 70.5544 149.294 68.2424V83.5286H143.844V60.1952H148.338C149.117 60.936 149.978 61.8451 150.922 62.9225C151.866 63.9999 152.822 65.156 153.789 66.3905C154.78 67.6026 155.759 68.8709 156.727 70.1952C157.694 71.4972 158.602 72.7542 159.452 73.9663V60.1952H164.938V83.5286H160.301Z" fill="white"/>
<path d="M182.558 64.2356C179.986 64.2356 178.122 64.9203 176.966 66.2895C175.834 67.6363 175.267 69.4882 175.267 71.8451C175.267 72.9899 175.409 74.0336 175.692 74.9764C175.975 75.8967 176.4 76.6936 176.966 77.367C177.532 78.0404 178.24 78.5679 179.09 78.9495C179.939 79.3086 180.93 79.4882 182.063 79.4882C182.676 79.4882 183.195 79.477 183.62 79.4545C184.068 79.4321 184.458 79.3872 184.788 79.3198V71.2053H190.309V82.7542C189.649 83.0011 188.587 83.2592 187.124 83.5286C185.661 83.8204 183.856 83.9663 181.709 83.9663C179.868 83.9663 178.193 83.697 176.683 83.1583C175.197 82.6195 173.922 81.8339 172.861 80.8013C171.799 79.7688 170.973 78.5005 170.383 76.9966C169.817 75.4927 169.534 73.7755 169.534 71.8451C169.534 69.8922 169.852 68.1638 170.489 66.6599C171.126 65.1559 171.999 63.8877 173.108 62.8552C174.217 61.8002 175.515 61.0033 177.002 60.4646C178.512 59.9259 180.116 59.6565 181.815 59.6565C182.971 59.6565 184.009 59.7351 184.93 59.8922C185.873 60.0269 186.676 60.1952 187.336 60.3972C188.02 60.5768 188.575 60.7676 189 60.9696C189.448 61.1716 189.767 61.3288 189.955 61.441L188.363 65.6498C187.608 65.2682 186.735 64.9427 185.744 64.6734C184.776 64.3815 183.714 64.2356 182.558 64.2356Z" fill="white"/>
<path d="M133.386 75.917V68.8853H140.337V75.0023C140.337 77.0794 140.177 78.6896 139.857 79.833C139.536 80.9763 138.849 81.9101 137.794 82.6342C136.758 83.3774 135.289 83.7776 133.386 83.8348V80.862C135.647 80.519 136.777 79.0993 136.777 76.603C136.777 76.4505 136.768 76.2219 136.749 75.917H133.386Z" fill="white"/>
<path d="M139.657 63.4073C139.657 65.0878 138.31 66.4502 136.649 66.4502C134.988 66.4502 133.641 65.0878 133.641 63.4073C133.641 61.7267 134.988 60.3643 136.649 60.3643C138.31 60.3643 139.657 61.7267 139.657 63.4073Z" fill="white"/>
<path d="M43.2335 81.7339C43.2335 82.3311 43.4531 82.9039 43.844 83.3262C44.235 83.7485 44.7652 83.9857 45.318 83.9857H52.6933C53.2461 83.9857 53.7763 83.7485 54.1673 83.3262C54.5582 82.9039 54.7779 82.3311 54.7779 81.7339V33.0097C54.7779 32.4119 54.5584 31.8385 54.1677 31.4151C53.7769 30.9918 53.2467 30.7531 52.6933 30.7513H44.7268C44.1734 30.7531 43.6432 30.9918 43.2524 31.4151C42.8617 31.8385 42.6422 32.4119 42.6422 33.0097V33.5826C42.6422 34.1798 42.8619 34.7526 43.2528 35.1749C43.6437 35.5972 44.1739 35.8344 44.7268 35.8344H47.1649C47.7194 35.8344 48.2511 36.0724 48.6432 36.4959C49.0353 36.9194 49.2556 37.4939 49.2556 38.0929L49.1946 77.2433C49.1898 77.836 48.9689 78.4027 48.5798 78.8205C48.1907 79.2384 47.6648 79.4737 47.1161 79.4754H45.3241C44.7697 79.4754 44.2379 79.7134 43.8458 80.1369C43.4537 80.5604 43.2335 81.1349 43.2335 81.7339Z" fill="white"/>
<path d="M11.5505 81.7339C11.5505 82.3311 11.3308 82.9039 10.9399 83.3262C10.549 83.7485 10.0188 83.9857 9.4659 83.9857H2.09067C1.53725 83.9857 1.00639 83.7487 0.61449 83.3265C0.222589 82.9044 0.00161348 82.3317 0 81.7339V33.0097C0.00160809 32.4113 0.22239 31.8379 0.614118 31.4147C1.00585 30.9916 1.53669 30.7531 2.09067 30.7513H10.051C10.605 30.7531 11.1359 30.9916 11.5276 31.4147C11.9193 31.8379 12.1401 32.4113 12.1417 33.0097V33.5826C12.1401 34.1804 11.9191 34.7532 11.5272 35.1753C11.1353 35.5974 10.6045 35.8344 10.051 35.8344H7.61295C7.05953 35.8362 6.52932 36.0749 6.13857 36.4982C5.74781 36.9216 5.52838 37.495 5.52838 38.0929L5.58933 77.2433C5.58932 77.5393 5.64349 77.8323 5.7487 78.1056C5.85392 78.3789 6.00811 78.627 6.20241 78.8356C6.3967 79.0443 6.62727 79.2094 6.88085 79.3215C7.13444 79.4335 7.40603 79.4903 7.68 79.4886H9.472C10.0223 79.492 10.5491 79.7297 10.9382 80.15C11.3273 80.5704 11.5473 81.1394 11.5505 81.7339Z" fill="white"/>
<path d="M14.1653 75.5709C14.1637 75.8579 14.057 76.1325 13.8685 76.3349C13.6801 76.5372 13.4252 76.6507 13.1595 76.6507H9.62431C9.35969 76.649 9.10636 76.5347 8.91924 76.3326C8.73212 76.1304 8.6263 75.8568 8.6247 75.5709V63.9002V52.2294C8.6247 51.943 8.73001 51.6684 8.91747 51.4659C9.10494 51.2634 9.3592 51.1496 9.62431 51.1496H13.446C13.7111 51.1496 13.9654 51.2634 14.1529 51.4659C14.3403 51.6684 14.4456 51.943 14.4456 52.2294V52.4862C14.444 52.7721 14.3382 53.0457 14.1511 53.2479C13.964 53.45 13.7106 53.5643 13.446 53.566H12.2757C12.0101 53.566 11.7552 53.6796 11.5667 53.8819C11.3783 54.0842 11.2716 54.3589 11.27 54.6459L11.3005 73.4112C11.3021 73.6982 11.4088 73.9729 11.5972 74.1752C11.7856 74.3775 12.0405 74.4911 12.3062 74.4911H13.1595C13.2913 74.4902 13.422 74.5175 13.544 74.5714C13.6659 74.6252 13.7769 74.7046 13.8703 74.805C13.9638 74.9054 14.038 75.0247 14.0886 75.1561C14.1392 75.2876 14.1653 75.4285 14.1653 75.5709Z" fill="white"/>
<path d="M27.197 44.8352C36.222 44.8352 43.5383 43.1048 43.5383 40.9702C43.5383 38.8356 36.222 37.1052 27.197 37.1052C18.1719 37.1052 10.8556 38.8356 10.8556 40.9702C10.8556 43.1048 18.1719 44.8352 27.197 44.8352Z" fill="white"/>
<path d="M22.6926 29.8427C15.5185 25.8921 25.5086 17.1612 22.589 11.5053C21.9429 10.2411 19.0964 11.3736 19.6998 12.539C21.8271 16.6674 17.5909 20.3941 17.2069 24.4896C16.9326 27.4526 17.9932 30.3562 20.5044 31.7324C21.565 32.3184 24.1067 30.6196 22.6926 29.8427Z" fill="white"/>
<path d="M27.0018 18.7151C27.9405 16.2197 28.6719 13.4477 28.0197 10.7744C27.142 7.13327 24.5089 4.8156 24.3626 0.772819C24.3077 -0.649399 21.382 0.114371 21.4247 1.27321C21.4784 3.72628 22.1416 6.11867 23.3447 8.19995C25.4293 11.8279 25.6792 14.7382 24.1858 18.702C23.619 20.1966 26.5508 19.7818 26.9531 18.702L27.0018 18.7151Z" fill="white"/>
</svg>
