<svg width="28" height="28" viewBox="0 0 28 28" fill="none" xmlns="http://www.w3.org/2000/svg">
<path d="M8.0043 0C3.59041 0 0 3.59374 0 8.00877V19.4467C0 23.8606 3.59374 27.451 8.00877 27.451H19.4467C23.8606 27.451 27.451 23.8572 27.451 19.4422V8.0043C27.451 3.59041 23.8572 0 19.4422 0H8.0043ZM21.732 4.57516C22.3634 4.57516 22.8758 5.08758 22.8758 5.71895C22.8758 6.35033 22.3634 6.86275 21.732 6.86275C21.1007 6.86275 20.5882 6.35033 20.5882 5.71895C20.5882 5.08758 21.1007 4.57516 21.732 4.57516ZM13.7255 6.86275C17.5103 6.86275 20.5882 9.94069 20.5882 13.7255C20.5882 17.5103 17.5103 20.5882 13.7255 20.5882C9.94069 20.5882 6.86275 17.5103 6.86275 13.7255C6.86275 9.94069 9.94069 6.86275 13.7255 6.86275ZM13.7255 9.15033C12.5121 9.15033 11.3484 9.63235 10.4904 10.4904C9.63235 11.3484 9.15033 12.5121 9.15033 13.7255C9.15033 14.9389 9.63235 16.1026 10.4904 16.9606C11.3484 17.8186 12.5121 18.3007 13.7255 18.3007C14.9389 18.3007 16.1026 17.8186 16.9606 16.9606C17.8186 16.1026 18.3007 14.9389 18.3007 13.7255C18.3007 12.5121 17.8186 11.3484 16.9606 10.4904C16.1026 9.63235 14.9389 9.15033 13.7255 9.15033Z" fill="#CEB7FF"/>
</svg>
