<svg preserveAspectRatio="none" width="100%" height="100%" overflow="visible" style="display: block;" viewBox="0 0 1867 436" fill="none" xmlns="http://www.w3.org/2000/svg">
<g id="Group 48096263" opacity="0.3" filter="url(#filter0_f_0_72)">
<path id="Rectangle 9485" d="M508.478 10.0002H1355.96L1857 426H10L508.478 10.0002Z" fill="url(#paint0_linear_0_72)"/>
<g id="Group 48096264">
<path id="Rectangle 9486" d="M549.778 10H568.289L91.3378 426H70.3594L549.778 10Z" fill="url(#paint1_linear_0_72)"/>
<path id="Rectangle 9488" d="M1316.11 10H1297.6L1774.55 426H1795.53L1316.11 10Z" fill="url(#paint2_linear_0_72)"/>
<path id="Rectangle 9487" d="M581.43 10H591.119L118.896 426H106.764L581.43 10Z" fill="url(#paint3_linear_0_72)"/>
<path id="Rectangle 9489" d="M1284.46 10.0002H1274.77L1746.99 426H1759.12L1284.46 10.0002Z" fill="url(#paint4_linear_0_72)"/>
</g>
<path id="Rectangle 9490" d="M926.662 224H941.579L950 363H918L926.662 224Z" fill="var(--fill-0, white)"/>
<path id="Rectangle 9491" d="M928.496 64H939.684L946 139H922L928.496 64Z" fill="var(--fill-0, white)"/>
</g>
<defs>
<filter id="filter0_f_0_72" x="0" y="0" width="1867" height="436" filterUnits="userSpaceOnUse" color-interpolation-filters="sRGB">
<feFlood flood-opacity="0" result="BackgroundImageFix"/>
<feBlend mode="normal" in="SourceGraphic" in2="BackgroundImageFix" result="shape"/>
<feGaussianBlur stdDeviation="0" result="effect1_foregroundBlur_0_72"/>
</filter>
<linearGradient id="paint0_linear_0_72" x1="933.5" y1="10.0002" x2="933.5" y2="426" gradientUnits="userSpaceOnUse">
<stop stop-color="#0C0C0C"/>
<stop offset="1" stop-color="#505050"/>
</linearGradient>
<linearGradient id="paint1_linear_0_72" x1="320.182" y1="389.52" x2="308.617" y2="10.3265" gradientUnits="userSpaceOnUse">
<stop stop-color="#A7282D"/>
<stop offset="1" stop-color="#411012"/>
</linearGradient>
<linearGradient id="paint2_linear_0_72" x1="1545.71" y1="389.52" x2="1557.27" y2="10.3265" gradientUnits="userSpaceOnUse">
<stop stop-color="#A7282D"/>
<stop offset="1" stop-color="#411012"/>
</linearGradient>
<linearGradient id="paint3_linear_0_72" x1="349.775" y1="389.52" x2="337.888" y2="10.3466" gradientUnits="userSpaceOnUse">
<stop stop-color="#A7282D"/>
<stop offset="1" stop-color="#411012"/>
</linearGradient>
<linearGradient id="paint4_linear_0_72" x1="1516.11" y1="389.52" x2="1528" y2="10.3467" gradientUnits="userSpaceOnUse">
<stop stop-color="#A7282D"/>
<stop offset="1" stop-color="#411012"/>
</linearGradient>
</defs>
</svg>
